<svg version="1.1" id="Capa_1" xmlns="http://www.w3.org/2000/svg" x="0" y="0" viewBox="0 0 118.9 145.9" style="enable-background:new 0 0 118.9 145.9" xml:space="preserve"><style>.st6{fill:#ebf0ef}.st7{fill:#e33629;stroke:#e33629;stroke-miterlimit:10}</style><g id="XMLID_10_"><path id="XMLID_22_" d="M89.4 98.6c0 14-.1 28 .1 42 0 3.8-1.1 5.4-5.1 5.3-14.2-.3-11.8 1.7-12-11.8-.1-5.2-.1-10.3 0-15.5.1-3.1-1.1-4.6-4.3-4.5-5.7.1-11.3.2-17 0-3.7-.1-5.1 1.2-5 4.9.2 7.3-.1 14.7.1 22 .1 3.7-1.3 5-4.9 4.9-14.6-.3-12 1.7-12.1-11.6-.1-25.5 0-51 0-76.5 0-9.2 2.9-12.1 12.3-12.1h37c7.6 0 10.9 3.4 10.9 11v41.9z" style="fill:#155946"/><path id="XMLID_21_" d="M94.2 112.5c0-9.3.1-18.6-.1-27.9-.1-3.9 1.4-5.4 5.3-5.1 2.8.2 5.7 0 8.5.1 7 .1 10.7 3.3 10.8 10.2.3 15.3.3 30.6 0 45.9-.1 6.6-3.9 10.1-10.5 10.1-16.6 0-13.7 2.2-14-13.3-.1-6.7 0-13.4 0-20z" style="fill:#165947"/><path id="XMLID_20_" d="M24.4 113.3c0 9.1-.1 18.3.1 27.4.1 3.9-1.4 5.5-5.3 5.2-3.3-.2-6.7.1-10-.2-5.3-.4-9-3.6-9-8.8C0 120.6 0 104.3.2 88c0-4 2.5-7.1 6.4-8 5-1.2 10.3-.6 15.4-.3 2.8.2 2.4 2.8 2.4 4.7v28.9z" style="fill:#155947"/><path id="XMLID_18_" d="M51 132.3c0-2.8.2-5.7 0-8.5-.3-4 1.5-5.1 5.3-5.1 12.9.3 11.5-1.7 11.6 11.3 0 3.7-.1 7.3 0 11 .1 3.3-1.1 4.9-4.6 4.9-15-.3-12 1.8-12.3-13.6z" style="fill:#185a48"/><path id="XMLID_13_" d="M59.4 69.6h12.4c1.6 0 3.1.1 3.2 2.2.1 2-1.4 2.6-3 2.6-8.6.1-17.2.1-25.8 0-1.6 0-2.9-1-2.7-2.8.2-1.7 1.5-1.9 3-1.9 4.3-.1 8.6-.1 12.9-.1z" style="fill:#f5f7f7"/><path id="XMLID_12_" d="M59.4 92.5h8.5c1.6 0 3.1.3 3.1 2.4 0 1.8-1.4 2.2-2.8 2.2-6 .1-12 .1-17.9 0-1.4 0-2.7-.7-2.6-2.4.1-1.7 1.3-2.2 2.8-2.2h8.9z" style="fill:#fafcfb"/><path id="XMLID_11_" class="st6" d="M107.1 108.6c0 2.8.4 6.7-2.6 6.5-2.5-.1-2.4-3.2-2.4-6.3 0-1.3-.1-3.3 0-4.6.1-1.7.5-3.5 2.7-3.4 2.2.2 2.3 2 2.2 3.7 0 1.2.1 2.6.1 4.1z"/></g><path id="XMLID_9_" class="st6" d="M16.3 108.9c0 2.8.4 6.7-2.6 6.5-2.5-.1-2.4-3.2-2.4-6.3 0-1.3-.1-3.3 0-4.6.1-1.7.5-3.5 2.7-3.4 2.2.2 2.3 2 2.2 3.7.1 1.2.1 2.6.1 4.1z"/><g id="XMLID_6_"><path id="XMLID_5_" class="st7" d="m53.5 11.6 5.3-10.1c.3-.6 1.3-.6 1.6 0l4.7 10.3c.1.3.4.4.6.5L77 14.4c.7.1 1 1 .4 1.5L69 23.6c-.2.2-.3.5-.3.8l1.6 11.3c.1.7-.7 1.2-1.3.9L59.1 31c-.3-.1-.6-.1-.8 0l-10.2 5c-.6.3-1.4-.2-1.2-1l2.2-11.2c.1-.3 0-.6-.2-.8L41 14.9c-.5-.5-.2-1.4.5-1.5l11.3-1.3c.3-.1.6-.2.7-.5z"/><path id="XMLID_7_" class="st7" d="m87.2 24.1 2.3-4c.1-.3.5-.2.6 0l1.8 4.3c0 .1.1.2.3.2l4.5 1c.3.1.4.4.2.6l-3.5 3c-.1.1-.1.2-.1.3l.5 4.6c0 .3-.3.5-.5.3l-4-2.4h-.4l-4.2 1.9c-.3.1-.6-.1-.5-.4l1.1-4.5c0-.1 0-.2-.1-.3L82 25.2c-.2-.2-.1-.6.2-.6l4.6-.4c.2 0 .3 0 .4-.1z"/><path id="XMLID_25_" class="st7" d="m106.1 34.9 2.3-4c.1-.3.5-.2.6 0l1.8 4.3c0 .1.1.2.3.2l4.5 1c.3.1.4.4.2.6l-3.5 3c-.1.1-.1.2-.1.3l.5 4.6c0 .3-.3.5-.5.3l-4-2.4c-.1-.1-.2-.1-.3 0l-4.2 1.9c-.3.1-.6-.1-.5-.4l1.1-4.5c0-.1 0-.2-.1-.3l-3.1-3.4c-.2-.2-.1-.6.2-.6l4.6-.4c.1 0 .2-.1.2-.2z"/><path id="XMLID_16_" class="st7" d="m30.6 24.1-2.3-4c-.1-.3-.5-.2-.6 0l-1.8 4.3c0 .1-.1.2-.3.2l-4.5 1c-.3.1-.4.4-.2.6l3.5 3c.1.1.1.2.1.3l-.5 4.6c0 .3.3.5.5.3l4-2.4c.1-.1.2-.1.3 0l4.2 1.9c.3.1.6-.1.5-.4l-.9-4.5c0-.1 0-.2.1-.3l3.1-3.4c.2-.2.1-.6-.2-.6l-4.6-.4c-.2-.1-.3-.1-.4-.2z"/><path id="XMLID_15_" class="st7" d="m11.6 34.9-2.3-4c-.1-.3-.5-.2-.6 0l-1.8 4.3c0 .1-.1.2-.3.2l-4.5 1c-.3.1-.4.4-.2.6l3.5 3c.1.1.1.2.1.3L5.1 45c0 .3.3.5.5.3l4-2.4c.1-.1.2-.1.3 0l4.2 1.9c.3.1.6-.1.5-.4l-1.1-4.5c0-.1 0-.2.1-.3l3.1-3.4c.2-.2.1-.6-.2-.6l-4.6-.4-.3-.3z"/></g></svg>
