<svg width="100%" height="100%" viewBox="0 0 22.308 24.601" xmlns="http://www.w3.org/2000/svg"><path style="fill-opacity:1;fill-rule:nonzero;stroke:none;stroke-width:.264583" d="M47.72 161.964c-.177-2.116-1.412-3.44-3.352-4.145-.97-.265-1.676-.53-1.676-1.676 0-.529-.44-.97-1.058-.97-.44-.088-1.058.177-1.058.706 0 2.028-1.411 1.675-2.646 1.675h-3.175c-1.058.089-1.852 0-1.94-1.322 0-.706-.53-1.059-1.147-1.059s-1.058.353-1.058.97c.088 1.235-.706 1.411-1.588 1.676-2.116.706-3.351 2.381-3.351 4.674-.088 2.029 0 4.057 0 6.174 0 2.028-.088 4.145 0 6.262.088 2.734 1.852 4.674 4.498 4.762 4.321.088 8.643.088 13.053 0 2.38-.088 4.233-1.764 4.41-4.233.44-4.498.352-8.996.088-13.494zm-19.668.441c0-1.235.706-2.117 2.029-2.205.529-.088.44.53.529.97 0 .706.353 1.235 1.146 1.235.706 0 1.147-.44 1.147-1.146 0-1.147.617-1.323 1.587-1.235h3.88c1.06 0 2.294-.176 2.206 1.587 0 .53.529.794 1.146.794.618-.088.882-.44 1.059-1.058.088-.441-.177-1.147.617-1.147.617 0 1.058.353 1.411.882.617.97.706 2.117.53 3.263-.177.794-.883.618-1.412.618h-7.232c-2.557 0-5.027.088-7.585 0-1.94-.088-1.058-1.676-1.058-2.558zm17.374 6.438c-.088 1.852 0 3.705-.088 5.468-.088 2.205-.97 2.999-3.087 2.999h-11.2c-2.205 0-2.999-.882-3.087-2.999 0-1.852.088-3.704 0-5.468 0-1.146.353-1.41 1.411-1.41H43.84c1.058-.089 1.587.264 1.587 1.41z" transform="translate(-25.632 -155.157)"/><path style="fill-opacity:1;fill-rule:nonzero;stroke:none;stroke-width:.264583" d="M42.78 171.048c0 .618-2.469 3.352-3.174 3.616-1.235.353-1.852-.529-2.558-1.235-.53-.44-.794-1.058-.265-1.675.353-.618.97-.618 1.5-.265 1.234.794 1.499-.529 2.116-.97.53-.353 1.059-.794 1.764-.44.353.264.53.528.618.97z" transform="translate(-25.632 -155.157)"/></svg>
