<svg width="100%" height="100%" viewBox="0 0 17.223 24.696" xmlns="http://www.w3.org/2000/svg">
<path style="fill-opacity:1;fill-rule:nonzero;stroke:none;stroke-width:.264583" d="M97.307 60.949c-1.852-.088-3.616 0-5.468 0-4.233 0-6.262 1.94-6.173 6.173 0 2.558.97 3.616 3.616 3.704h4.939v-.088c1.763 0 3.616.088 5.468 0 1.323 0 2.557-.529 2.822-1.852 1.146-4.145-.265-7.585-5.204-7.937zm2.999 6.79c-.353.97-1.323.53-2.029.618h-8.113c-.706-.088-1.676.353-2.029-.617-.264-1.059-.353-2.117.353-2.999.617-.794 1.411-1.323 2.381-1.323h6.703c1.058 0 1.94.618 2.47 1.411.617.882.617 1.94.264 2.91z" transform="translate(-85.663 -46.13)"/><path style="fill-opacity:1;fill-rule:nonzero;stroke:none;stroke-width:.264583" d="M95.367 46.308c-3.528-.882-6.085 1.588-6.085 5.821 0 3.88 1.675 6.086 4.674 6.262 2.646.088 4.762-1.676 5.203-4.41.53-4.233-.793-6.967-3.792-7.673zm1.323 7.32c-.176 1.412-1.058 2.382-2.558 2.294-1.587-.089-2.293-1.059-2.38-2.558V50.983c.175-1.411.97-2.293 2.38-2.382 1.411-.088 2.293.794 2.47 2.205.176.882.176 1.852.088 2.823z" transform="translate(-85.663 -46.13)"/></svg>
