<svg width="100%" height="100%" viewBox="0 0 21.391 23.756" xmlns="http://www.w3.org/2000/svg"><path style="fill-opacity:1;fill-rule:nonzero;stroke:none;stroke-width:.264583" d="M109.179 131.02v-5.203c0-1.058.44-1.676 1.587-1.676h.618c5.556-.44 7.408 1.764 7.055 6.968-.088 1.764 0 3.616 0 5.38 0 1.146-.529 1.675-1.587 1.675h-6.086c-1.146 0-1.675-.617-1.587-1.675v-5.468zm2.381-4.586v9.525c1.235 0 2.381 0 3.44.089.97 0 1.41-.353 1.323-1.411v-4.146c0-3.792-.794-4.497-4.763-4.057zM106.533 140.722c0 1.764-.088 3.528 0 5.292 0 1.058-.53 1.675-1.587 1.675-1.323 0-2.734 0-3.97-.176-2.116-.353-3.615-2.029-3.615-4.233-.088-2.646 0-5.38-.088-8.026 0-1.235.617-1.588 1.675-1.588a67.99 67.99 0 0 0 5.998 0c1.058 0 1.587.53 1.587 1.588v5.468zm-2.117 4.586v-6.085c0-3.705 0-3.705-3.792-3.44-.97.088-1.235.441-1.235 1.323 0 1.411.089 2.91 0 4.322-.352 3.792 1.676 4.586 5.027 3.88zM113.765 140.81h2.293c2.293 0 2.558.353 2.381 2.646-.264 2.028-1.675 3.616-3.792 4.057-4.85.97-6.526-.617-5.468-5.468.176-.441.882-1.058 1.411-1.147 1.058-.176 2.117-.088 3.175-.088zm-2.293 4.498c3.351.53 4.498-.088 4.498-2.293h-4.498c0 .441-.088.706-.088 1.058 0 .353 0 .794.088 1.235zM101.859 131.02h-1.764c-2.822 0-3.528-.97-2.646-3.704.617-1.675 1.764-2.734 3.528-3.086 4.85-.794 6.438.705 5.468 5.556-.088.44-.882 1.058-1.411 1.146-.97.177-2.117 0-3.175 0v.089zm-2.293-2.116c1.323 0 2.646 0 3.969-.088.264 0 .793-.441.793-.794.088-.53 0-1.323-.264-1.588-1.5-1.146-4.234.265-4.498 2.47z" transform="translate(-97.092 -124.029)"/></svg>
