<svg width="100%" height="100%" viewBox="0 0 12.366 24.649" xmlns="http://www.w3.org/2000/svg"><path style="fill-opacity:1;fill-rule:nonzero;stroke:none;stroke-width:.264583" d="M105.441 101.023a2.15 2.15 0 0 0-1.058 0c-1.147.088-1.411-.353-1.411-1.411 0-.882.353-1.146 1.146-1.146 1.059 0 2.47.352 2.47-1.235-.088-1.588-1.411-1.059-2.381-1.147-.353-.088-1.059.088-1.059-.353-.176-1.41-.088-2.822-.088-4.233-.088-.882.882-.794 1.323-1.058 2.558-1.323 3.969-3.969 3.44-6.527-.53-2.822-2.823-4.938-5.557-5.115a6.06 6.06 0 0 0-6.262 3.88c-.97 2.558-.352 5.998 2.117 6.968 2.734 1.147 2.47 3.087 2.381 5.204v1.94c0 1.676.089 3.263 0 4.939 0 .793.265 1.499 1.059 1.587 1.323.177 2.734.088 4.057 0 .705 0 .97-.529.97-1.235-.088-.705-.53-1.058-1.147-1.058zm-7.408-16.14c.088-2.116 1.676-3.704 3.792-3.615 2.029 0 3.704 1.675 3.616 3.616 0 2.028-1.764 3.704-3.704 3.704-2.028 0-3.704-1.676-3.704-3.704z" transform="translate(-95.567 -78.77)"/></svg>
