<svg width="100%" height="100%" viewBox="0 0 24.696 24.747" xmlns="http://www.w3.org/2000/svg"><path style="fill-opacity:1;fill-rule:nonzero;stroke:none;stroke-width:.264583" d="M59.479 96.085c-1.147-.088-1.764-1.058-1.764-2.293 0-1.058.617-2.028 1.675-2.204 1.94-.353 2.293-1.5 2.029-2.91 0-3.793-.882-4.675-4.322-4.587-1.41 0-1.94-.353-1.94-1.852-.176-1.94-1.676-3.175-3.616-3.175-1.94 0-3.616 1.323-3.616 3.263 0 1.764-.882 1.764-2.117 1.676-1.587-.088-3.086.088-3.88 1.764-.353.882-.265 1.852-.176 2.734.088 1.234-.265 1.675-1.588 1.675-1.94.089-3.351 1.588-3.351 3.528-.089 1.852 1.146 3.704 2.998 3.704 1.94 0 2.029.97 1.94 2.382-.176 1.675.265 3.086 2.029 3.704 1.235.353 2.47.353 3.792.264.882-.176 1.411-.617 1.5-1.499.264-1.411 1.058-2.205 2.47-2.205 1.41 0 2.204.882 2.38 2.117.177 1.146.794 1.5 1.852 1.587 1.147.089 2.205.089 3.352-.176 1.5-.441 2.293-1.588 2.293-3.704 0-1.5.705-3.44-1.94-3.793zm-1.323 5.116c-.706.176-1.5.352-2.117-.618-2.646-4.145-6.35-4.145-9.084.089-.53.881-1.235.617-1.94.529-.794 0-.882-.618-.882-1.235v-2.822c.088-1.5-.53-2.117-2.117-2.117-1.058.088-2.734.53-2.646-1.235 0-1.764 1.588-1.146 2.558-1.146 1.587 0 2.205-.618 2.293-2.205 0-3.792.088-3.792 3.704-3.969 1.676 0 2.558-.617 2.381-2.381-.088-.53-.088-1.058.089-1.588.088-.529.44-.881 1.058-.881.705 0 1.146.264 1.235.97.088.088.088.264.088.352.353 3.528.353 3.528 3.969 3.528.793.088 1.94-.44 2.204.882.265 1.147-.264 1.676-1.322 2.293-3.352 1.852-3.175 6.438.264 8.467.617.44 1.323.617 1.058 1.5 0 .705.089 1.41-.793 1.587z" transform="translate(-36.808 -79.064)"/></svg>